<svg width="152" height="80" viewBox="0 0 152 80" fill="none" xmlns="http://www.w3.org/2000/svg">
<g clip-path="url(#clip0_455_8985)">
<path fill-rule="evenodd" clip-rule="evenodd" d="M145.305 7.06897C148.803 7.06897 151.638 9.77069 151.638 13.1035C151.638 16.4362 148.803 19.1379 145.305 19.1379H109.114C112.612 19.1379 115.448 21.8397 115.448 25.1724C115.448 28.5052 112.612 31.2069 109.114 31.2069H129.019C132.517 31.2069 135.352 33.9086 135.352 37.2414C135.352 40.5741 132.517 43.2759 129.019 43.2759H119.814C115.404 43.2759 111.829 45.9776 111.829 49.3104C111.829 51.5319 113.638 53.544 117.257 55.3448C120.755 55.3448 123.591 58.0466 123.591 61.3793C123.591 64.7121 120.755 67.4138 117.257 67.4138H42.162C38.6642 67.4138 35.8287 64.7121 35.8287 61.3793C35.8287 58.0466 38.6642 55.3448 42.162 55.3448H6.8763C3.37849 55.3448 0.542969 52.6431 0.542969 49.3104C0.542969 45.9776 3.37849 43.2759 6.8763 43.2759H43.0668C46.5646 43.2759 49.4001 40.5741 49.4001 37.2414C49.4001 33.9086 46.5646 31.2069 43.0668 31.2069H20.4477C16.9499 31.2069 14.1144 28.5052 14.1144 25.1724C14.1144 21.8397 16.9499 19.1379 20.4477 19.1379H56.6382C53.1404 19.1379 50.3049 16.4362 50.3049 13.1035C50.3049 9.77069 53.1404 7.06897 56.6382 7.06897H145.305ZM145.305 31.2069C148.803 31.2069 151.638 33.9086 151.638 37.2414C151.638 40.5741 148.803 43.2759 145.305 43.2759C141.807 43.2759 138.972 40.5741 138.972 37.2414C138.972 33.9086 141.807 31.2069 145.305 31.2069Z" fill="#141518"/>
<path d="M55.9911 34.0627C56.9149 33.7482 57.7636 33.2994 58.4367 32.2707L64.2426 21.2432C64.5059 20.8026 64.685 20.3219 64.7719 19.8234L64.808 19.5728L66.4022 5.43928L67.3079 5.07169C70.1262 3.92807 73.3988 4.86962 75.0816 7.30798C76.655 9.58773 77.5896 11.9178 77.8864 14.2982C78.3406 17.9496 77.8574 22.251 76.4388 27.2024L76.2768 27.7551H97.175L97.1732 27.7582L99.1429 27.7586C101.911 27.7586 104.155 29.8968 104.155 32.5344C104.155 32.6668 104.15 32.7991 104.138 32.931C103.96 34.9675 102.661 36.6764 100.849 37.5258C102.777 38.1905 104.155 39.95 104.155 42.0172C104.155 42.1491 104.15 42.2819 104.138 42.4138C103.916 44.9482 101.958 46.9767 99.4351 47.4707C100.647 48.2517 101.443 49.5732 101.443 51.0715C101.443 51.2034 101.436 51.3345 101.424 51.4655C101.168 54.1508 98.8045 56.2069 95.9753 56.2069L95.0823 56.206C96.197 56.9991 96.9189 58.2655 96.9189 59.6922C96.9189 59.8241 96.9126 59.9551 96.9 60.0862C96.6439 62.7715 94.2807 64.8276 91.4515 64.8276H85.5904L85.5913 64.8198H61.4939M58.2006 64.587C57.2433 64.3431 56.3431 63.9138 55.5596 63.3198" stroke="#9CA3B3" stroke-width="2.5" stroke-linecap="round" stroke-linejoin="round"/>
<path fill-rule="evenodd" clip-rule="evenodd" d="M96.3271 30.5443C98.2542 30.5443 99.8167 32.033 99.8167 33.8694C99.8167 34.0552 99.8004 34.2405 99.7679 34.4236C99.6168 35.2784 98.9717 36.1878 97.8335 37.1517L97.5991 37.3457C97.2182 37.6526 97.1712 38.1966 97.4942 38.5603C97.5159 38.5853 97.5394 38.6086 97.5639 38.631C98.8939 39.8233 99.5589 40.9241 99.5589 41.9336C99.5589 42.0862 99.5507 42.2379 99.5335 42.3897C99.3996 43.5785 98.541 44.6862 96.9577 45.7155L96.7143 45.869C95.8747 46.3862 95.6349 47.4535 96.1778 48.2526C96.242 48.3474 96.3153 48.4362 96.3985 48.5172C96.9269 49.0371 97.192 49.5836 97.192 50.1586C97.192 50.4474 97.1486 50.7336 97.0635 51.0103C96.356 53.3103 94.5157 53.9017 91.6268 54.8897C91.2821 55.0121 91.1066 55.3785 91.235 55.7069C91.2884 55.8414 91.3871 55.9552 91.5164 56.0293C92.4673 56.5733 92.9423 57.2638 92.9423 58.1017C92.9423 58.3259 92.917 58.55 92.8681 58.769C92.3642 61.031 90.2688 62.2983 87.8413 62.2983H62.0411C60.3763 62.2983 58.7668 61.7517 57.4793 60.756C56.5094 59.4397 55.9756 57.8759 55.9484 56.2672L55.8154 48.6474L64.93 48.6483C65.9026 48.7388 66.8888 48.7845 67.8868 48.7845C80.6828 48.7845 91.6268 41.2293 96.0728 30.5447L96.3271 30.5443Z" fill="#32333D"/>
<path d="M43.5195 1.03442V6.20684" stroke="url(#paint0_linear_455_8985)" stroke-width="2.5" stroke-linecap="round" stroke-linejoin="round"/>
<path d="M43.5195 13.1034V18.2758" stroke="url(#paint1_linear_455_8985)" stroke-width="2.5" stroke-linecap="round" stroke-linejoin="round"/>
<path d="M34.4717 9.65515H39.9003" stroke="url(#paint2_linear_455_8985)" stroke-width="2.5" stroke-linecap="round" stroke-linejoin="round"/>
<path d="M47.1377 9.65515H52.5663" stroke="url(#paint3_linear_455_8985)" stroke-width="2.5" stroke-linecap="round" stroke-linejoin="round"/>
<path d="M107.757 64.8276V68.2759" stroke="url(#paint4_linear_455_8985)" stroke-width="2.5" stroke-linecap="round" stroke-linejoin="round"/>
<path d="M107.757 75.1724V78.6206" stroke="url(#paint5_linear_455_8985)" stroke-width="2.5" stroke-linecap="round" stroke-linejoin="round"/>
<path d="M100.52 71.7241H104.139" stroke="url(#paint6_linear_455_8985)" stroke-width="2.5" stroke-linecap="round" stroke-linejoin="round"/>
<path d="M111.376 71.7241H114.995" stroke="url(#paint7_linear_455_8985)" stroke-width="2.5" stroke-linecap="round" stroke-linejoin="round"/>
<path d="M48.4952 31.4712H34.9237C32.925 31.4712 31.3047 33.0151 31.3047 34.9195V62.506C31.3047 64.4103 32.925 65.9543 34.9237 65.9543H48.4952C50.4938 65.9543 52.1142 64.4103 52.1142 62.506V34.9195C52.1142 33.0151 50.4938 31.4712 48.4952 31.4712Z" stroke="#9CA3B3" stroke-width="2.5" stroke-linejoin="round"/>
<path fill-rule="evenodd" clip-rule="evenodd" d="M34.4717 48.7129H48.9479V61.6439C48.9479 62.5957 48.1377 63.3681 47.1383 63.3681H36.2812C35.2818 63.3681 34.4717 62.5957 34.4717 61.6439V48.7129Z" fill="#32333D"/>
<path d="M41.7094 60.5173C43.2085 60.5173 44.4237 59.3595 44.4237 57.9311C44.4237 56.5026 43.2085 55.3448 41.7094 55.3448C40.2103 55.3448 38.9951 56.5026 38.9951 57.9311C38.9951 59.3595 40.2103 60.5173 41.7094 60.5173Z" stroke="url(#paint8_linear_455_8985)" stroke-width="2.5"/>
</g>
<defs>
<linearGradient id="paint0_linear_455_8985" x1="43.7408" y1="0.398707" x2="44.649" y2="0.448944" gradientUnits="userSpaceOnUse">
<stop offset="0.365329" stop-color="#F37821"/>
<stop offset="1" stop-color="#CA2501"/>
</linearGradient>
<linearGradient id="paint1_linear_455_8985" x1="43.7408" y1="12.4677" x2="44.649" y2="12.5179" gradientUnits="userSpaceOnUse">
<stop offset="0.365329" stop-color="#F37821"/>
<stop offset="1" stop-color="#CA2501"/>
</linearGradient>
<linearGradient id="paint2_linear_455_8985" x1="35.6726" y1="9.53225" x2="37.1219" y2="11.7832" gradientUnits="userSpaceOnUse">
<stop offset="0.365329" stop-color="#F37821"/>
<stop offset="1" stop-color="#CA2501"/>
</linearGradient>
<linearGradient id="paint3_linear_455_8985" x1="48.3386" y1="9.53225" x2="49.7879" y2="11.7832" gradientUnits="userSpaceOnUse">
<stop offset="0.365329" stop-color="#F37821"/>
<stop offset="1" stop-color="#CA2501"/>
</linearGradient>
<linearGradient id="paint4_linear_455_8985" x1="107.978" y1="64.4038" x2="108.883" y2="64.4789" gradientUnits="userSpaceOnUse">
<stop offset="0.365329" stop-color="#F37821"/>
<stop offset="1" stop-color="#CA2501"/>
</linearGradient>
<linearGradient id="paint5_linear_455_8985" x1="107.978" y1="74.7486" x2="108.883" y2="74.8236" gradientUnits="userSpaceOnUse">
<stop offset="0.365329" stop-color="#F37821"/>
<stop offset="1" stop-color="#CA2501"/>
</linearGradient>
<linearGradient id="paint6_linear_455_8985" x1="101.32" y1="71.6012" x2="102.911" y2="73.2487" gradientUnits="userSpaceOnUse">
<stop offset="0.365329" stop-color="#F37821"/>
<stop offset="1" stop-color="#CA2501"/>
</linearGradient>
<linearGradient id="paint7_linear_455_8985" x1="112.177" y1="71.6012" x2="113.768" y2="73.2487" gradientUnits="userSpaceOnUse">
<stop offset="0.365329" stop-color="#F37821"/>
<stop offset="1" stop-color="#CA2501"/>
</linearGradient>
<linearGradient id="paint8_linear_455_8985" x1="40.196" y1="54.7091" x2="44.7324" y2="56.0713" gradientUnits="userSpaceOnUse">
<stop offset="0.365329" stop-color="#F37821"/>
<stop offset="1" stop-color="#CA2501"/>
</linearGradient>
<clipPath id="clip0_455_8985">
<rect width="152" height="80" fill="white"/>
</clipPath>
</defs>
</svg>
