<svg width="95" height="32" viewBox="0 0 95 32" fill="none" xmlns="http://www.w3.org/2000/svg">
<path d="M4.08674 14.8639L5.57124 13.3794C6.07126 12.8784 6.35208 12.1995 6.35208 11.4917C6.35208 10.7839 6.07126 10.105 5.57124 9.60402L5.53687 9.56964L0.670812 14.4357C0.241216 14.8668 0 15.4507 0 16.0593C0 16.6679 0.241216 17.2517 0.670812 17.6829L4.65554 21.677C4.62779 22.1472 4.69997 22.6179 4.86731 23.0582C5.03466 23.4985 5.29339 23.8983 5.62644 24.2314C5.9595 24.5644 6.35934 24.8232 6.79962 24.9905C7.23991 25.1579 7.71065 25.23 8.18085 25.2023L12.0187 29.0401C12.4494 29.4705 13.0334 29.7122 13.6423 29.7122C14.2511 29.7122 14.8351 29.4705 15.2658 29.0401L20.1288 24.1772L20.0944 24.1397C19.8468 23.8918 19.5528 23.6952 19.2292 23.561C18.9055 23.4269 18.5586 23.3578 18.2083 23.3578C17.858 23.3578 17.511 23.4269 17.1874 23.561C16.8638 23.6952 16.5698 23.8918 16.3222 24.1397L14.8377 25.6273C14.5206 25.9443 14.0906 26.1224 13.6423 26.1224C13.1939 26.1224 12.7639 25.9443 12.4468 25.6273L10.6779 23.8647C11.1705 23.221 11.4125 22.4203 11.359 21.6115C11.3054 20.8028 10.96 20.041 10.3868 19.4679C9.8137 18.8947 9.05192 18.5493 8.24316 18.4957C7.4344 18.4422 6.63372 18.6842 5.99003 19.1768L4.08674 17.2547C3.76974 16.9376 3.59166 16.5076 3.59166 16.0593C3.59166 15.6109 3.76974 15.1809 4.08674 14.8639Z" fill="white"/>
<path d="M21.8101 8.04416C21.4772 7.71032 21.0771 7.45102 20.6363 7.28346C20.1956 7.1159 19.7243 7.04389 19.2537 7.0722L15.2658 3.08121C14.8347 2.65162 14.2509 2.4104 13.6422 2.4104C13.0336 2.4104 12.4498 2.65162 12.0186 3.08121L7.15259 7.94728L7.18384 7.9754C7.43229 8.22402 7.72728 8.42125 8.05198 8.55581C8.37668 8.69038 8.72472 8.75964 9.07619 8.75964C9.42767 8.75964 9.77571 8.69038 10.1004 8.55581C10.4251 8.42125 10.7201 8.22402 10.9685 7.9754L12.4468 6.49714C12.7639 6.18015 13.1939 6.00207 13.6422 6.00207C14.0906 6.00207 14.5206 6.18015 14.8376 6.49714L16.7566 8.41607C16.264 9.05976 16.022 9.86044 16.0755 10.6692C16.1291 11.478 16.4745 12.2397 17.0477 12.8129C17.6208 13.386 18.3826 13.7315 19.1913 13.785C20.0001 13.8386 20.8008 13.5966 21.4445 13.104L23.2134 14.8729C23.5304 15.19 23.7085 15.62 23.7085 16.0683C23.7085 16.5167 23.5304 16.9467 23.2134 17.2637L21.7257 18.7514C21.478 18.9987 21.2814 19.2924 21.1473 19.6158C21.0132 19.9392 20.9441 20.2858 20.9441 20.6359C20.9441 20.986 21.0132 21.3326 21.1473 21.656C21.2814 21.9794 21.478 22.2731 21.7257 22.5205L21.7633 22.5548L26.6262 17.6919C27.0565 17.2612 27.2983 16.6772 27.2983 16.0683C27.2983 15.4594 27.0565 14.8755 26.6262 14.4447L22.7883 10.6069C22.8169 10.1347 22.7445 9.66188 22.5758 9.21995C22.4071 8.77802 22.1461 8.37717 21.8101 8.04416Z" fill="#F37821" stroke="#F37821" stroke-width="0.312609" stroke-miterlimit="10"/>
<path d="M41.7403 5.9171V22H39.7928V5.9171H41.7403ZM47.2472 14.7438V22H45.3939V9.93782H47.1844V11.8225H47.3414C47.6241 11.21 48.0534 10.7179 48.6293 10.3462C49.2052 9.96924 49.9486 9.78076 50.8596 9.78076C51.6763 9.78076 52.3909 9.94829 53.0034 10.2834C53.616 10.6132 54.0924 11.1158 54.4327 11.7911C54.773 12.4612 54.9431 13.3094 54.9431 14.3355V22H53.0898V14.4611C53.0898 13.5135 52.8438 12.7754 52.3516 12.2466C51.8595 11.7126 51.1842 11.4456 50.3256 11.4456C49.734 11.4456 49.2052 11.5739 48.7393 11.8304C48.2786 12.0869 47.9147 12.4612 47.6477 12.9534C47.3807 13.4455 47.2472 14.0423 47.2472 14.7438ZM60.183 14.7438V22H58.3297V9.93782H60.1202V11.8225H60.2773C60.56 11.21 60.9893 10.7179 61.5651 10.3462C62.141 9.96924 62.8844 9.78076 63.7954 9.78076C64.6121 9.78076 65.3267 9.94829 65.9393 10.2834C66.5518 10.6132 67.0282 11.1158 67.3685 11.7911C67.7088 12.4612 67.8789 13.3094 67.8789 14.3355V22H66.0256V14.4611C66.0256 13.5135 65.7796 12.7754 65.2875 12.2466C64.7953 11.7126 64.12 11.4456 63.2614 11.4456C62.6698 11.4456 62.141 11.5739 61.6751 11.8304C61.2144 12.0869 60.8505 12.4612 60.5835 12.9534C60.3165 13.4455 60.183 14.0423 60.183 14.7438ZM71.2655 22V9.93782H73.1188V22H71.2655ZM72.2079 7.92746C71.8467 7.92746 71.5352 7.80443 71.2734 7.55837C71.0169 7.31231 70.8886 7.01651 70.8886 6.67098C70.8886 6.32545 71.0169 6.02966 71.2734 5.7836C71.5352 5.53754 71.8467 5.41451 72.2079 5.41451C72.5691 5.41451 72.878 5.53754 73.1345 5.7836C73.3963 6.02966 73.5272 6.32545 73.5272 6.67098C73.5272 7.01651 73.3963 7.31231 73.1345 7.55837C72.878 7.80443 72.5691 7.92746 72.2079 7.92746ZM81.7591 9.93782V11.5084H75.5081V9.93782H81.7591ZM77.33 7.04793H79.1833V18.5447C79.1833 19.0682 79.2592 19.4609 79.411 19.7226C79.5681 19.9792 79.767 20.1519 80.0079 20.2409C80.2539 20.3247 80.5131 20.3666 80.7853 20.3666C80.9895 20.3666 81.157 20.3561 81.2879 20.3352C81.4188 20.309 81.5235 20.2881 81.602 20.2723L81.979 21.9372C81.8533 21.9843 81.6779 22.0314 81.4528 22.0785C81.2277 22.1309 80.9424 22.1571 80.5968 22.1571C80.0733 22.1571 79.5602 22.0445 79.0577 21.8194C78.5603 21.5943 78.1467 21.2513 77.8169 20.7906C77.4923 20.3299 77.33 19.7488 77.33 19.0473V7.04793ZM84.5469 22V9.93782H86.4002V22H84.5469ZM85.4892 7.92746C85.128 7.92746 84.8165 7.80443 84.5547 7.55837C84.2982 7.31231 84.1699 7.01651 84.1699 6.67098C84.1699 6.32545 84.2982 6.02966 84.5547 5.7836C84.8165 5.53754 85.128 5.41451 85.4892 5.41451C85.8505 5.41451 86.1594 5.53754 86.4159 5.7836C86.6777 6.02966 86.8085 6.32545 86.8085 6.67098C86.8085 7.01651 86.6777 7.31231 86.4159 7.55837C86.1594 7.80443 85.8505 7.92746 85.4892 7.92746Z" fill="white"/>
<path d="M30.5129 24.4121H94.9999" stroke="#F37821" stroke-width="0.312609" stroke-miterlimit="10"/>
<path d="M38.1333 27.5403V31.5621H37.662L35.4704 28.4043H35.4311V31.5621H34.9441V27.5403H35.4154L37.6148 30.7059H37.6541V27.5403H38.1333ZM40.3096 31.625C40.019 31.625 39.7683 31.5608 39.5575 31.4325C39.348 31.3029 39.1864 31.1222 39.0725 30.8905C38.9599 30.6575 38.9036 30.3865 38.9036 30.0775C38.9036 29.7685 38.9599 29.4962 39.0725 29.2606C39.1864 29.0236 39.3448 28.839 39.5477 28.7068C39.7519 28.5732 39.9902 28.5065 40.2625 28.5065C40.4196 28.5065 40.5748 28.5326 40.7279 28.585C40.8811 28.6374 41.0205 28.7225 41.1462 28.8403C41.2719 28.9568 41.3721 29.1113 41.4467 29.3038C41.5213 29.4962 41.5586 29.7332 41.5586 30.0147V30.211H39.2335V29.8104H41.0873C41.0873 29.6402 41.0533 29.4884 40.9852 29.3548C40.9184 29.2213 40.8229 29.1159 40.6985 29.0387C40.5754 28.9614 40.4301 28.9228 40.2625 28.9228C40.0779 28.9228 39.9182 28.9686 39.7833 29.0603C39.6498 29.1506 39.547 29.2684 39.475 29.4137C39.403 29.5591 39.367 29.7149 39.367 29.8811V30.1482C39.367 30.376 39.4063 30.5691 39.4849 30.7275C39.5647 30.8846 39.6753 31.0044 39.8167 31.0869C39.9581 31.1681 40.1224 31.2086 40.3096 31.2086C40.4314 31.2086 40.5414 31.1916 40.6396 31.1576C40.7391 31.1222 40.8248 31.0699 40.8968 31.0005C40.9688 30.9298 41.0245 30.8421 41.0637 30.7373L41.5115 30.863C41.4644 31.0149 41.3852 31.1484 41.2739 31.2636C41.1626 31.3775 41.0251 31.4666 40.8615 31.5307C40.6978 31.5936 40.5139 31.625 40.3096 31.625ZM43.5754 28.5457V28.9385H42.0123V28.5457H43.5754ZM42.4679 27.8231H42.9313V30.6981C42.9313 30.829 42.9503 30.9272 42.9883 30.9926C43.0275 31.0568 43.0773 31.1 43.1375 31.1222C43.1991 31.1432 43.2639 31.1537 43.3319 31.1537C43.383 31.1537 43.4249 31.151 43.4576 31.1458C43.4903 31.1393 43.5165 31.134 43.5362 31.1301L43.6304 31.5464C43.599 31.5582 43.5552 31.57 43.4989 31.5818C43.4426 31.5949 43.3712 31.6014 43.2848 31.6014C43.1539 31.6014 43.0256 31.5733 42.8999 31.517C42.7755 31.4607 42.6721 31.3749 42.5896 31.2597C42.5084 31.1445 42.4679 30.9992 42.4679 30.8237V27.8231ZM44.956 31.5621L44.0369 28.5457H44.524L45.1759 30.8552H45.2074L45.8515 28.5457H46.3464L46.9826 30.8473H47.0141L47.666 28.5457H48.1531L47.234 31.5621H46.7784L46.1186 29.2448H46.0714L45.4116 31.5621H44.956ZM49.8886 31.625C49.6163 31.625 49.3773 31.5602 49.1718 31.4306C48.9676 31.3009 48.8078 31.1196 48.6926 30.8866C48.5787 30.6535 48.5218 30.3812 48.5218 30.0696C48.5218 29.7554 48.5787 29.4812 48.6926 29.2468C48.8078 29.0125 48.9676 28.8305 49.1718 28.7009C49.3773 28.5713 49.6163 28.5065 49.8886 28.5065C50.1609 28.5065 50.3992 28.5713 50.6034 28.7009C50.8089 28.8305 50.9687 29.0125 51.0826 29.2468C51.1978 29.4812 51.2554 29.7554 51.2554 30.0696C51.2554 30.3812 51.1978 30.6535 51.0826 30.8866C50.9687 31.1196 50.8089 31.3009 50.6034 31.4306C50.3992 31.5602 50.1609 31.625 49.8886 31.625ZM49.8886 31.2086C50.0954 31.2086 50.2656 31.1556 50.3992 31.0496C50.5327 30.9435 50.6315 30.8041 50.6957 30.6313C50.7598 30.4585 50.7919 30.2713 50.7919 30.0696C50.7919 29.868 50.7598 29.6802 50.6957 29.506C50.6315 29.3319 50.5327 29.1912 50.3992 29.0838C50.2656 28.9765 50.0954 28.9228 49.8886 28.9228C49.6817 28.9228 49.5115 28.9765 49.378 29.0838C49.2444 29.1912 49.1456 29.3319 49.0815 29.506C49.0173 29.6802 48.9852 29.868 48.9852 30.0696C48.9852 30.2713 49.0173 30.4585 49.0815 30.6313C49.1456 30.8041 49.2444 30.9435 49.378 31.0496C49.5115 31.1556 49.6817 31.2086 49.8886 31.2086ZM51.9628 31.5621V28.5457H52.4106V29.0013H52.442C52.497 28.8521 52.5965 28.731 52.7405 28.638C52.8845 28.5451 53.0469 28.4986 53.2275 28.4986C53.2616 28.4986 53.3041 28.4993 53.3552 28.5006C53.4062 28.5019 53.4449 28.5038 53.471 28.5065V28.9778C53.4553 28.9738 53.4193 28.968 53.363 28.9601C53.308 28.9509 53.2498 28.9464 53.1882 28.9464C53.0416 28.9464 52.9107 28.9771 52.7955 29.0387C52.6816 29.0989 52.5913 29.1827 52.5245 29.29C52.459 29.3961 52.4263 29.5172 52.4263 29.6533V31.5621H51.9628ZM54.4524 30.4624L54.4446 29.889H54.5389L55.8585 28.5457H56.432L55.0259 29.9675H54.9866L54.4524 30.4624ZM54.0204 31.5621V27.5403H54.4839V31.5621H54.0204ZM55.9371 31.5621L54.7588 30.0696L55.0887 29.7476L56.5262 31.5621H55.9371ZM60.8461 28.5457C60.8225 28.3467 60.727 28.1923 60.5594 28.0823C60.3918 27.9723 60.1863 27.9173 59.9427 27.9173C59.7647 27.9173 59.6089 27.9461 59.4754 28.0037C59.3431 28.0613 59.2397 28.1405 59.1651 28.2413C59.0918 28.3422 59.0551 28.4567 59.0551 28.585C59.0551 28.6924 59.0806 28.7847 59.1317 28.8619C59.1841 28.9378 59.2508 29.0013 59.332 29.0524C59.4132 29.1021 59.4983 29.1434 59.5873 29.1761C59.6763 29.2075 59.7581 29.2331 59.8328 29.2527L60.2412 29.3627C60.346 29.3902 60.4625 29.4281 60.5908 29.4766C60.7204 29.525 60.8441 29.5911 60.962 29.6749C61.0811 29.7574 61.1793 29.8634 61.2565 29.9931C61.3338 30.1227 61.3724 30.2817 61.3724 30.4703C61.3724 30.6876 61.3154 30.884 61.2015 31.0594C61.0889 31.2348 60.924 31.3743 60.7067 31.4777C60.4906 31.5811 60.2281 31.6328 59.9192 31.6328C59.6311 31.6328 59.3817 31.5864 59.171 31.4934C58.9615 31.4004 58.7965 31.2708 58.6761 31.1046C58.557 30.9383 58.4895 30.7452 58.4738 30.5252H58.9765C58.9896 30.6771 59.0407 30.8028 59.1297 30.9023C59.2201 31.0005 59.334 31.0738 59.4714 31.1222C59.6102 31.1694 59.7595 31.1929 59.9192 31.1929C60.1051 31.1929 60.272 31.1628 60.4199 31.1026C60.5679 31.0411 60.6851 30.956 60.7715 30.8473C60.8579 30.7373 60.9011 30.609 60.9011 30.4624C60.9011 30.3289 60.8638 30.2202 60.7891 30.1364C60.7145 30.0526 60.6163 29.9845 60.4946 29.9322C60.3728 29.8798 60.2412 29.834 60.0998 29.7947L59.605 29.6533C59.2908 29.563 59.042 29.434 58.8587 29.2665C58.6754 29.0989 58.5838 28.8796 58.5838 28.6086C58.5838 28.3834 58.6447 28.187 58.7664 28.0194C58.8895 27.8506 59.0544 27.7196 59.2613 27.6267C59.4695 27.5324 59.7018 27.4853 59.9584 27.4853C60.2177 27.4853 60.4481 27.5318 60.6497 27.6247C60.8513 27.7164 61.011 27.842 61.1289 28.0018C61.248 28.1615 61.3109 28.3428 61.3174 28.5457H60.8461ZM63.3357 31.625C63.0634 31.625 62.8245 31.5602 62.6189 31.4306C62.4147 31.3009 62.2549 31.1196 62.1397 30.8866C62.0258 30.6535 61.9689 30.3812 61.9689 30.0696C61.9689 29.7554 62.0258 29.4812 62.1397 29.2468C62.2549 29.0125 62.4147 28.8305 62.6189 28.7009C62.8245 28.5713 63.0634 28.5065 63.3357 28.5065C63.608 28.5065 63.8463 28.5713 64.0505 28.7009C64.2561 28.8305 64.4158 29.0125 64.5297 29.2468C64.6449 29.4812 64.7025 29.7554 64.7025 30.0696C64.7025 30.3812 64.6449 30.6535 64.5297 30.8866C64.4158 31.1196 64.2561 31.3009 64.0505 31.4306C63.8463 31.5602 63.608 31.625 63.3357 31.625ZM63.3357 31.2086C63.5425 31.2086 63.7127 31.1556 63.8463 31.0496C63.9798 30.9435 64.0787 30.8041 64.1428 30.6313C64.207 30.4585 64.239 30.2713 64.239 30.0696C64.239 29.868 64.207 29.6802 64.1428 29.506C64.0787 29.3319 63.9798 29.1912 63.8463 29.0838C63.7127 28.9765 63.5425 28.9228 63.3357 28.9228C63.1288 28.9228 62.9586 28.9765 62.8251 29.0838C62.6916 29.1912 62.5927 29.3319 62.5286 29.506C62.4644 29.6802 62.4323 29.868 62.4323 30.0696C62.4323 30.2713 62.4644 30.4585 62.5286 30.6313C62.5927 30.8041 62.6916 30.9435 62.8251 31.0496C62.9586 31.1556 63.1288 31.2086 63.3357 31.2086ZM65.8734 27.5403V31.5621H65.41V27.5403H65.8734ZM68.6232 30.3289V28.5457H69.0867V31.5621H68.6232V31.0515H68.5918C68.5211 31.2047 68.4111 31.335 68.2619 31.4423C68.1126 31.5484 67.9241 31.6014 67.6963 31.6014C67.5078 31.6014 67.3402 31.5602 67.1936 31.4777C67.047 31.3939 66.9317 31.2682 66.848 31.1006C66.7642 30.9318 66.7223 30.719 66.7223 30.4624V28.5457H67.1857V30.431C67.1857 30.6509 67.2473 30.8264 67.3703 30.9573C67.4947 31.0882 67.6531 31.1537 67.8456 31.1537C67.9608 31.1537 68.0779 31.1242 68.1971 31.0653C68.3175 31.0064 68.4183 30.916 68.4995 30.7943C68.582 30.6725 68.6232 30.5174 68.6232 30.3289ZM71.2474 28.5457V28.9385H69.6842V28.5457H71.2474ZM70.1398 27.8231H70.6032V30.6981C70.6032 30.829 70.6222 30.9272 70.6602 30.9926C70.6995 31.0568 70.7492 31.1 70.8094 31.1222C70.871 31.1432 70.9358 31.1537 71.0038 31.1537C71.0549 31.1537 71.0968 31.151 71.1295 31.1458C71.1623 31.1393 71.1884 31.134 71.2081 31.1301L71.3023 31.5464C71.2709 31.5582 71.2271 31.57 71.1708 31.5818C71.1145 31.5949 71.0431 31.6014 70.9567 31.6014C70.8258 31.6014 70.6975 31.5733 70.5718 31.517C70.4474 31.4607 70.344 31.3749 70.2615 31.2597C70.1804 31.1445 70.1398 30.9992 70.1398 30.8237V27.8231ZM71.9445 31.5621V28.5457H72.408V31.5621H71.9445ZM72.1802 28.043C72.0898 28.043 72.0119 28.0122 71.9465 27.9507C71.8823 27.8892 71.8502 27.8152 71.8502 27.7288C71.8502 27.6424 71.8823 27.5684 71.9465 27.5069C72.0119 27.4454 72.0898 27.4146 72.1802 27.4146C72.2705 27.4146 72.3477 27.4454 72.4119 27.5069C72.4774 27.5684 72.5101 27.6424 72.5101 27.7288C72.5101 27.8152 72.4774 27.8892 72.4119 27.9507C72.3477 28.0122 72.2705 28.043 72.1802 28.043ZM74.4822 31.625C74.2099 31.625 73.971 31.5602 73.7654 31.4306C73.5612 31.3009 73.4015 31.1196 73.2863 30.8866C73.1724 30.6535 73.1154 30.3812 73.1154 30.0696C73.1154 29.7554 73.1724 29.4812 73.2863 29.2468C73.4015 29.0125 73.5612 28.8305 73.7654 28.7009C73.971 28.5713 74.2099 28.5065 74.4822 28.5065C74.7545 28.5065 74.9928 28.5713 75.197 28.7009C75.4026 28.8305 75.5623 29.0125 75.6762 29.2468C75.7914 29.4812 75.849 29.7554 75.849 30.0696C75.849 30.3812 75.7914 30.6535 75.6762 30.8866C75.5623 31.1196 75.4026 31.3009 75.197 31.4306C74.9928 31.5602 74.7545 31.625 74.4822 31.625ZM74.4822 31.2086C74.6891 31.2086 74.8593 31.1556 74.9928 31.0496C75.1264 30.9435 75.2252 30.8041 75.2893 30.6313C75.3535 30.4585 75.3856 30.2713 75.3856 30.0696C75.3856 29.868 75.3535 29.6802 75.2893 29.506C75.2252 29.3319 75.1264 29.1912 74.9928 29.0838C74.8593 28.9765 74.6891 28.9228 74.4822 28.9228C74.2754 28.9228 74.1052 28.9765 73.9716 29.0838C73.8381 29.1912 73.7393 29.3319 73.6751 29.506C73.611 29.6802 73.5789 29.868 73.5789 30.0696C73.5789 30.2713 73.611 30.4585 73.6751 30.6313C73.7393 30.8041 73.8381 30.9435 73.9716 31.0496C74.1052 31.1556 74.2754 31.2086 74.4822 31.2086ZM77.0199 29.7476V31.5621H76.5565V28.5457H77.0042V29.017H77.0435C77.1142 28.8639 77.2216 28.7408 77.3656 28.6479C77.5096 28.5536 77.6955 28.5065 77.9233 28.5065C78.1275 28.5065 78.3062 28.5484 78.4594 28.6321C78.6126 28.7146 78.7317 28.8403 78.8168 29.0092C78.9019 29.1768 78.9445 29.3889 78.9445 29.6455V31.5621H78.481V29.6769C78.481 29.4399 78.4195 29.2553 78.2964 29.1231C78.1734 28.9896 78.0045 28.9228 77.7898 28.9228C77.6418 28.9228 77.5096 28.9549 77.3931 29.019C77.2779 29.0832 77.1869 29.1768 77.1201 29.2998C77.0533 29.4229 77.0199 29.5721 77.0199 29.7476ZM81.928 29.2213L81.5116 29.3391C81.4855 29.2697 81.4468 29.2023 81.3958 29.1368C81.346 29.0701 81.278 29.0151 81.1915 28.9719C81.1051 28.9287 80.9945 28.9071 80.8597 28.9071C80.6751 28.9071 80.5212 28.9496 80.3982 29.0347C80.2764 29.1185 80.2155 29.2252 80.2155 29.3548C80.2155 29.47 80.2574 29.561 80.3412 29.6278C80.425 29.6946 80.5559 29.7502 80.734 29.7947L81.1817 29.9047C81.4514 29.9701 81.6524 30.0703 81.7846 30.2051C81.9168 30.3387 81.983 30.5108 81.983 30.7216C81.983 30.8944 81.9332 31.0489 81.8337 31.1851C81.7355 31.3212 81.5981 31.4286 81.4213 31.5071C81.2446 31.5857 81.039 31.625 80.8047 31.625C80.497 31.625 80.2424 31.5582 80.0408 31.4247C79.8391 31.2911 79.7115 31.0961 79.6578 30.8395L80.0977 30.7295C80.1396 30.8918 80.2188 31.0136 80.3353 31.0947C80.4532 31.1759 80.607 31.2165 80.7968 31.2165C81.0128 31.2165 81.1843 31.1707 81.3113 31.079C81.4396 30.9861 81.5038 30.8748 81.5038 30.7452C81.5038 30.6405 81.4671 30.5527 81.3938 30.482C81.3205 30.41 81.2079 30.3564 81.056 30.321L80.5533 30.2032C80.2771 30.1377 80.0741 30.0363 79.9445 29.8988C79.8162 29.76 79.7521 29.5866 79.7521 29.3784C79.7521 29.2082 79.7999 29.0576 79.8954 28.9267C79.9923 28.7958 80.1239 28.693 80.2902 28.6184C80.4577 28.5438 80.6476 28.5065 80.8597 28.5065C81.1582 28.5065 81.3925 28.5719 81.5627 28.7028C81.7342 28.8338 81.856 29.0066 81.928 29.2213ZM84.2988 31.5621V27.5403H84.7858V31.1301H86.6553V31.5621H84.2988ZM87.4094 31.5621V27.5403H87.8965V31.1301H89.766V31.5621H87.4094ZM90.5201 31.5621V27.5403H91.879C92.1946 27.5403 92.4525 27.5972 92.6528 27.7111C92.8544 27.8237 93.0036 27.9762 93.1005 28.1687C93.1974 28.3611 93.2458 28.5758 93.2458 28.8128C93.2458 29.0498 93.1974 29.2651 93.1005 29.4589C93.005 29.6527 92.857 29.8072 92.6567 29.9224C92.4564 30.0363 92.1998 30.0932 91.8869 30.0932H90.9128V29.6612H91.8712C92.0872 29.6612 92.2607 29.6239 92.3916 29.5492C92.5225 29.4746 92.6174 29.3738 92.6763 29.2468C92.7366 29.1185 92.7667 28.9738 92.7667 28.8128C92.7667 28.6518 92.7366 28.5078 92.6763 28.3808C92.6174 28.2538 92.5219 28.1543 92.3896 28.0823C92.2574 28.009 92.082 27.9723 91.8633 27.9723H91.0071V31.5621H90.5201Z" fill="#F37821"/>
</svg>
